<?xml version="1.0" standalone="no"?>
<!DOCTYPE svg PUBLIC "-//W3C//DTD SVG 1.1//EN" "http://www.w3.org/Graphics/SVG/1.1/DTD/svg11.dtd">
<svg id="ignite-ui_TabletLogo_Editable" viewBox="0 0 300 42" style="background-color:#ffffff00" version="1.1"
	xmlns="http://www.w3.org/2000/svg" xmlns:xlink="http://www.w3.org/1999/xlink" xml:space="preserve"
	x="0px" y="0px" width="300px" height="42px"
>
	<g>
		<path d="M 118.4759 32.8915 L 118.4759 7.8242 L 115.4944 7.8242 L 115.4944 32.8915 L 118.4759 32.8915 Z" fill="#ffffff"/>
		<path d="M 127.5176 17.1479 C 128.2328 16.5004 129.2711 16.1881 130.6185 16.1881 C 133.4333 16.1881 134.8414 17.4364 134.8414 19.956 C 134.8414 22.3562 133.4455 23.5556 130.6664 23.5556 C 129.3305 23.5556 128.2928 23.2562 127.5533 22.6562 C 126.8017 22.0562 126.4441 21.1677 126.4441 20.0042 C 126.4441 18.7438 126.8017 17.784 127.5176 17.1479 ZM 125.9671 33.2885 C 126.6823 32.7001 127.6964 32.4123 128.9965 32.4123 L 132.4199 32.4123 C 134.1613 32.4123 135.3542 32.6037 135.9864 32.9763 C 136.6065 33.3477 136.9283 34.0196 136.9283 34.9923 C 136.9283 36.168 136.344 37.0802 135.199 37.7753 C 134.0419 38.4473 132.2769 38.7955 129.879 38.7955 C 128.2692 38.7955 127.0284 38.5437 126.1695 38.04 C 125.3106 37.5363 124.8815 36.804 124.8815 35.8313 C 124.8815 34.7276 125.2391 33.8757 125.9671 33.2885 ZM 133.4097 13.7282 L 130.7258 13.7282 C 128.448 13.7282 126.6823 14.2801 125.4301 15.3838 C 124.1893 16.4882 123.5692 18.0602 123.5692 20.1122 C 123.5692 21.336 123.8674 22.4159 124.4996 23.3757 C 125.1082 24.324 125.9071 24.996 126.8854 25.4046 C 126.0859 25.8954 125.5016 26.4003 125.144 26.9156 C 124.7621 27.4436 124.5833 28.0565 124.5833 28.7517 C 124.5833 29.3645 124.75 29.9042 125.0724 30.3719 C 125.4064 30.8396 125.8119 31.1878 126.3004 31.4036 C 124.9645 31.7043 123.9275 32.2555 123.1873 33.0958 C 122.4479 33.9246 122.0781 34.9075 122.0781 36.0356 C 122.0781 37.7034 122.7461 38.9883 124.0941 39.8992 C 125.4301 40.7999 127.3503 41.2561 129.8318 41.2561 C 133.0521 41.2561 135.5087 40.7164 137.2029 39.6358 C 138.8849 38.5553 139.7317 36.9838 139.7317 34.9319 C 139.7317 33.3001 139.1831 32.0756 138.0854 31.2238 C 136.9762 30.3834 135.4015 29.9517 133.3618 29.9517 L 130.0106 29.9517 C 128.9607 29.9517 128.2328 29.8194 127.8158 29.5676 C 127.386 29.3157 127.1714 28.92 127.1714 28.3803 C 127.1714 27.3845 127.78 26.5442 129.0086 25.8722 C 129.4971 25.9686 130.0342 26.0162 130.5949 26.0162 C 132.8012 26.0162 134.5432 25.4637 135.8069 24.3599 C 137.0714 23.2678 137.7035 21.7921 137.7035 19.9438 C 137.7035 19.1279 137.5726 18.4078 137.3223 17.7602 C 137.0714 17.112 136.7853 16.5839 136.4513 16.1881 L 139.9698 15.7198 L 139.9698 13.7282 L 133.4097 13.7282 Z" fill="#ffffff"/>
		<path d="M 159.3047 32.8915 L 159.3047 20.6158 C 159.3047 18.2163 158.7211 16.4637 157.564 15.3722 C 156.4069 14.2801 154.677 13.7282 152.387 13.7282 C 151.0632 13.7282 149.8819 13.9801 148.8084 14.496 C 147.735 15.0003 146.9118 15.7198 146.3275 16.6443 L 146.1845 16.6443 L 145.7075 13.7282 L 143.3454 13.7282 L 143.3454 32.8915 L 146.256 32.8915 L 146.256 23.0404 C 146.256 20.6043 146.7094 18.8401 147.6513 17.784 C 148.5702 16.7162 150.037 16.1881 152.0288 16.1881 C 153.5199 16.1881 154.6291 16.5723 155.3328 17.3163 C 156.0493 18.0724 156.4069 19.2121 156.4069 20.7482 L 156.4069 32.8915 L 159.3047 32.8915 Z" fill="#ffffff"/>
		<path d="M 164.9344 9.8042 C 165.2576 10.1158 165.6624 10.2841 166.1631 10.2841 C 166.6292 10.2841 167.0226 10.1158 167.3687 9.8042 C 167.7021 9.4798 167.8694 8.9761 167.8694 8.3041 C 167.8694 7.6444 167.7021 7.1523 167.3687 6.8285 C 167.0226 6.5162 166.6292 6.3479 166.1631 6.3479 C 165.6624 6.3479 165.2576 6.5162 164.9344 6.8285 C 164.6126 7.1401 164.4453 7.6322 164.4453 8.3041 C 164.4453 8.9761 164.6126 9.4798 164.9344 9.8042 ZM 167.5948 13.7282 L 164.6841 13.7282 L 164.6841 32.8915 L 167.5948 32.8915 L 167.5948 13.7282 Z" fill="#ffffff"/>
		<path d="M 177.0062 30.0121 C 176.4685 29.4005 176.2066 28.5242 176.2066 27.3717 L 176.2066 16.1881 L 181.6333 16.1881 L 181.6333 13.7282 L 176.2066 13.7282 L 176.2066 9.2999 L 174.5489 9.2999 L 173.3203 13.5002 L 170.6012 14.7478 L 170.6012 16.1881 L 173.296 16.1881 L 173.296 27.5516 C 173.296 31.4525 175.1211 33.3836 178.7712 33.3836 C 179.2603 33.3836 179.7968 33.3361 180.4047 33.2397 C 181.0024 33.1318 181.4545 32.9994 181.7776 32.8555 L 181.7776 30.5877 C 181.4902 30.6597 181.1212 30.7445 180.6563 30.8164 C 180.1901 30.8884 179.7137 30.9359 179.2131 30.9359 C 178.282 30.9359 177.5426 30.6366 177.0062 30.0121 Z" fill="#ffffff"/>
		<path d="M 195.7088 17.5803 C 196.5084 18.5041 196.9132 19.8481 196.9132 21.5878 L 187.0485 21.5878 C 187.2043 19.8963 187.7407 18.5761 188.636 17.6163 C 189.5415 16.668 190.7471 16.1881 192.2618 16.1881 C 193.7523 16.1881 194.8979 16.6558 195.7088 17.5803 ZM 196.3283 33.1074 C 197.2351 32.9159 198.2019 32.6153 199.2159 32.1836 L 199.2159 29.6524 C 197.2121 30.5042 195.2082 30.9359 193.1686 30.9359 C 191.2235 30.9359 189.7203 30.3475 188.6475 29.1834 C 187.5861 28.0077 187.0255 26.304 186.9769 24.0477 L 200.0269 24.0477 L 200.0269 22.236 C 200.0269 19.6798 199.3347 17.6278 197.9516 16.068 C 196.5671 14.5082 194.6833 13.7282 192.2976 13.7282 C 189.7573 13.7282 187.7407 14.6283 186.226 16.4284 C 184.7227 18.2279 183.9603 20.6518 183.9603 23.7124 C 183.9603 26.7485 184.7713 29.1243 186.3933 30.828 C 188.0153 32.5318 190.2337 33.3836 193.0485 33.3836 C 194.3244 33.3836 195.4228 33.2885 196.3283 33.1074 Z" fill="#ffffff"/>
		<path d="M 219.7667 7.8242 L 219.7667 23.2678 C 219.7667 25.2362 219.3733 26.6766 218.5981 27.5876 C 217.8114 28.5114 216.547 28.9675 214.8164 28.9675 C 213.0284 28.9675 211.7397 28.5114 210.9645 27.6004 C 210.1893 26.6881 209.7959 25.2594 209.7959 23.3166 L 209.7959 7.8242 L 204.3923 7.8242 L 204.3923 24.0721 C 204.3923 26.9644 205.2863 29.2438 207.0883 30.9 C 208.9006 32.5562 211.4294 33.3836 214.6862 33.3836 C 216.8446 33.3836 218.7169 33.0123 220.3044 32.2684 C 221.8778 31.5244 223.0835 30.4438 223.9175 29.0395 C 224.7642 27.6479 225.1818 26.0046 225.1818 24.1441 L 225.1818 7.8242 L 219.7667 7.8242 Z" fill="#ffffff"/>
		<path d="M 236.3582 32.8915 L 236.3582 7.8242 L 230.9316 7.8242 L 230.9316 32.8915 L 236.3582 32.8915 Z" fill="#ffffff"/>
	</g>
	<g>
		<path d="M 241.6564 11.208 L 241.6564 7.7639 L 242.6589 7.7639 L 242.6589 7.2725 L 240.1659 7.2725 L 240.1659 7.7639 L 241.1672 7.7639 L 241.1672 11.208 L 241.6564 11.208 Z" fill="#ffffff"/>
		<path d="M 244.0178 11.208 L 244.0178 7.7639 L 245.1992 11.208 L 245.438 11.208 L 246.4994 7.7999 L 246.4994 11.208 L 247 11.208 L 247 7.2725 L 246.1175 7.5963 L 245.4138 9.972 C 245.3307 10.2482 245.295 10.4519 245.2592 10.5842 C 245.3065 10.4641 245.2592 10.2842 245.1162 10.0202 L 244.3997 7.5963 L 243.5172 7.2725 L 243.5172 11.208 L 244.0178 11.208 Z" fill="#ffffff"/>
	</g>
	<path d="M 75.0261 24 L 75.0261 10.8 L 75.0261 0 L 63 0 L 63 25.6992 C 63 34.51 68.9286 41.6934 81.9653 42 C 81.3401 41.3632 80.8346 40.421 80.8346 39.0255 C 80.8346 38.0716 81.0272 37.3863 81.2441 36.7992 L 81.2795 36.811 C 81.2795 36.811 82.3625 35.1338 82.3142 34.3751 L 82.3142 34.1431 C 82.3142 33.5679 81.653 32.9809 81.0877 32.9809 C 80.5224 32.9809 79.9326 33.5561 79.9326 34.1313 L 79.9326 34.2532 C 79.9326 34.2532 79.8129 34.7669 80.6067 35.5387 C 80.9068 35.8322 80.6305 35.7457 80.2095 35.6605 C 78.4775 34.6935 77.3353 32.9442 77.3353 30.8017 C 77.3353 30.313 76.8796 30.2659 77 29.8125 C 75.8578 28.3816 75.0261 26.0677 75.0261 24 L 75.0261 24 ZM 83.589 42 C 96.1924 41.7301 103 34.8239 103 26 L 103 0 L 91 0 L 91 11 L 91 24 C 91 27.75 89.8349 29.6357 88.8125 31.0313 C 88.9805 31.5567 88.6278 30.2147 88.6278 30.8017 C 88.6278 31.5002 88.5074 32.1488 88.2788 32.7607 C 88.219 33.1512 87.7741 34.4 85.0081 37.1661 C 82.8795 39.2836 83.0598 40.4826 83.0598 40.4826 C 83.0836 41.143 83.2523 41.5833 83.589 42 Z" fill="#ff6600"/>
	<path d="M 88.1555 30.3719 L 88.1555 30.4079 L 88.1913 30.5402 C 88.4301 29.0999 88.6926 27.576 88.6926 26.0046 C 88.6926 22.6202 88.084 19.4883 87.0463 16.8839 C 87.2967 15.5162 87.4282 14.0398 87.4282 12.516 C 87.4282 7.0681 85.7462 2.352 83.2889 0.0604 L 83.2295 0 L 83.158 0.0604 C 80.7129 2.352 79.0309 7.0681 79.0309 12.516 C 79.0309 13.5721 79.1624 15.5881 79.2097 15.5881 C 79.2697 15.5881 77.5877 18.5999 77.5519 23.7483 C 77.5283 27.2522 77.5519 28.6566 77.5877 28.8596 C 77.6235 28.6566 82.0367 23.2678 82.0367 23.2678 C 81.7742 22.7397 80.6886 20.2798 80.6886 13.8002 C 80.6886 9.3121 81.7027 4.4881 83.1938 2.6044 L 83.2295 2.5563 L 83.2653 2.6044 C 84.7564 4.4881 85.7705 9.3121 85.7705 13.8002 L 85.7705 14.2923 C 85.0425 13.1044 84.2193 12.108 83.3132 11.3403 L 83.2295 11.2684 L 83.2295 22.8965 C 84.0527 23.3513 87.1415 28.1876 88.1555 30.3719 Z" fill="#ffffff"/>
</svg>