<?xml version="1.0" standalone="no"?>
<!DOCTYPE svg PUBLIC "-//W3C//DTD SVG 1.1//EN" "http://www.w3.org/Graphics/SVG/1.1/DTD/svg11.dtd">
<svg id="MoreIcons" viewBox="0 0 240 60" style="background-color:#ffffff00" version="1.1"
	xmlns="http://www.w3.org/2000/svg" xmlns:xlink="http://www.w3.org/1999/xlink" xml:space="preserve"
	x="0px" y="0px" width="240px" height="60px"
>
	<defs>
		<radialGradient id="gradient1" cx="50%" cy="50%" r="50%">
			<stop stop-color="#000000" stop-opacity="0.6549" offset="0%"/>
			<stop stop-color="#000000" stop-opacity="0.6549" offset="33.8889%"/>
			<stop stop-color="#000000" stop-opacity="0" offset="98.8889%"/>
		</radialGradient>
		<radialGradient id="gradient2" cx="50%" cy="50%" r="50%">
			<stop stop-color="#000000" stop-opacity="0.6549" offset="0%"/>
			<stop stop-color="#000000" stop-opacity="0.6549" offset="33.8889%"/>
			<stop stop-color="#000000" stop-opacity="0" offset="98.8889%"/>
		</radialGradient>
		<radialGradient id="gradient3" cx="50%" cy="50.0004%" r="50%">
			<stop stop-color="#000000" stop-opacity="1" offset="0%"/>
			<stop stop-color="#000000" stop-opacity="0" offset="99.4444%"/>
		</radialGradient>
	</defs>
	<path d="M 15 7 C 19.4184 7 23 10.5817 23 15 C 23 19.4183 19.4184 23 15 23 C 10.5816 23 7 19.4183 7 15 C 7 10.5817 10.5816 7 15 7 ZM 15 5 C 9.4771 5 5 9.4771 5 15 C 5 20.5229 9.4771 25 15 25 C 20.5229 25 25 20.5229 25 15 C 25 9.4771 20.5229 5 15 5 Z" fill="#4b956b"/>
	<path d="M 15 37 C 19.4184 37 23 40.5817 23 45 C 23 49.4183 19.4184 53 15 53 C 10.5816 53 7 49.4183 7 45 C 7 40.5817 10.5816 37 15 37 ZM 15 35 C 9.4771 35 5 39.4771 5 45 C 5 50.5229 9.4771 55 15 55 C 20.5229 55 25 50.5229 25 45 C 25 39.4771 20.5229 35 15 35 Z" fill="#f9663b"/>
	<path d="M 37 15 C 37 10.5816 40.5817 7 45 7 C 49.4183 7 53 10.5816 53 15 C 53 19.4184 49.4183 23 45 23 C 40.5817 23 37 19.4184 37 15 ZM 35 15 C 35 20.5229 39.4771 25 45 25 C 50.5229 25 55 20.5229 55 15 C 55 9.4771 50.5229 5 45 5 C 39.4771 5 35 9.4771 35 15 Z" fill="#4b956b"/>
	<path d="M 37 45 C 37 40.5816 40.5817 37 45 37 C 49.4183 37 53 40.5816 53 45 C 53 49.4184 49.4183 53 45 53 C 40.5817 53 37 49.4184 37 45 ZM 35 45 C 35 50.5229 39.4771 55 45 55 C 50.5229 55 55 50.5229 55 45 C 55 39.4771 50.5229 35 45 35 C 39.4771 35 35 39.4771 35 45 Z" fill="#f9663b"/>
	<path d="M 16 10 L 14 10 L 14 16.585 L 11.5858 14.1716 L 10.1716 15.5858 L 14.4142 19.8284 L 15 19.245 L 15.5858 19.8284 L 19.8284 15.5858 L 18.4142 14.1716 L 16 16.585 L 16 10 Z" fill="#4b956b"/>
	<path d="M 16 40 L 14 40 L 14 46.585 L 11.5858 44.1716 L 10.1716 45.5858 L 14.4142 49.8284 L 15 49.245 L 15.5858 49.8284 L 19.8284 45.5858 L 18.4142 44.1716 L 16 46.585 L 16 40 Z" fill="#f9663b"/>
	<path d="M 40 14 L 40 16 L 46.585 16 L 44.1716 18.4142 L 45.5858 19.8284 L 49.8284 15.5858 L 49.245 15 L 49.8284 14.4142 L 45.5858 10.1716 L 44.1716 11.5858 L 46.585 14 L 40 14 Z" fill="#4b956b"/>
	<path d="M 40 44 L 40 46 L 46.585 46 L 44.1716 48.4142 L 45.5858 49.8284 L 49.8284 45.5858 L 49.245 45 L 49.8284 44.4142 L 45.5858 40.1716 L 44.1716 41.5858 L 46.585 44 L 40 44 Z" fill="#f9663b"/>
	<path id="Ellipse" opacity="0.3608" d="M 185 53 C 185 51.343 195.9689 50 209.5 50 C 223.0311 50 234 51.343 234 53 C 234 54.657 223.0311 56 209.5 56 C 195.9689 56 185 54.657 185 53 Z" fill="url(#gradient1)"/>
	<path id="Ellipse2" opacity="0.3608" d="M 63 52.88 C 63 51.1567 74.8643 49.76 89.5 49.76 C 104.1357 49.76 116 51.1567 116 52.88 C 116 54.6033 104.1357 56 89.5 56 C 74.8643 56 63 54.6033 63 52.88 Z" fill="url(#gradient2)"/>
	<path d="M 85.083 28.1732 C 86.5734 27.8055 88.2138 27.5916 90.0192 27.5916 L 85.083 28.1732 ZM 90.0192 27.5916 C 91.8244 27.5916 90.0192 27.5916 90.0192 27.5916 ZM 109.7638 52.88 C 109.7638 52.88 110.1476 31.9204 94.9554 28.1732 C 93.4649 27.8055 91.8244 27.5916 90.0192 27.5916 C 88.2138 27.5916 86.5734 27.8055 85.083 28.1732 C 69.891 31.9204 70.2754 52.88 70.2754 52.88 L 109.7638 52.88 Z" fill="#ef9329"/>
	<path id="Ellipse3" d="M 79.6274 19.6001 C 79.6274 13.8562 84.2801 9.2 90.0196 9.2 C 95.7592 9.2 100.4117 13.8562 100.4117 19.6001 C 100.4117 25.3439 95.7592 30 90.0196 30 C 84.2801 30 79.6274 25.3439 79.6274 19.6001 Z" fill="#ef9329"/>
	<path d="M 103.4081 15.5024 C 103.4081 11.8 99.8201 4 89.6717 4 C 79.3869 4 75.8517 12.19 75.8517 16.6741 C 75.5142 16.5471 75.0548 16.48 74.4314 16.48 C 73.2834 16.48 72.353 18.3425 72.353 20.64 C 72.353 22.9376 73.2834 24.8 74.4314 24.8 C 75.0501 24.8 75.4904 24.6912 75.8032 24.4915 C 76.2441 25.5374 76.8635 26.1866 77.549 26.1866 C 78.8883 26.1866 79.9738 23.7034 79.9738 20.64 C 79.9738 18.608 79.4947 16.8325 78.7823 15.8664 C 78.7823 13.1 82.1898 6.8782 89.876 6.8782 C 97.854 6.8782 101.011 12.97 101.011 16.2442 C 100.4358 17.2584 100.0654 18.85 100.0654 20.64 C 100.0654 22.1554 100.3309 23.5284 100.7616 24.5296 C 98.1984 28.4963 95.4215 29.4642 93.8126 29.6603 C 93.6435 28.097 92.3196 26.88 90.7125 26.88 C 88.9905 26.88 87.5948 28.2768 87.5948 30 C 87.5948 31.7232 88.9905 33.12 90.7125 33.12 C 92.1222 33.12 93.313 32.1832 93.6985 30.8978 C 97.8903 29.7789 100.3181 27.7354 101.7108 25.892 C 101.9559 26.0826 102.2169 26.1866 102.4902 26.1866 C 103.1757 26.1866 103.7951 25.5374 104.2361 24.4915 C 104.5486 24.6912 104.989 24.8 105.6078 24.8 C 106.7559 24.8 107.6863 22.9376 107.6863 20.64 C 107.6863 18.3425 106.7559 16.48 105.6078 16.48 C 104.9842 16.48 104.525 16.547 104.1876 16.6741 C 103.9653 16.1764 103.7009 15.7756 103.4081 15.5024 Z" fill="#c46611"/>
	<path d="M 192.7026 8 L 226.2974 8 C 229.4469 8 232 10.5531 232 13.7026 L 232 47.2974 C 232 50.4469 229.4469 53 226.2974 53 L 192.7026 53 C 189.5531 53 187 50.4469 187 47.2974 L 187 13.7026 C 187 10.5531 189.5531 8 192.7026 8 Z" fill="#f9663b"/>
	<path d="M 193 32 C 194 32 194 32 194 32 C 202 32 208.0782 38.3046 208.0782 46.1783 C 208.0782 46.3373 208 46 208 47 L 214 47 L 214 46 C 214 35 205 26 194 26 L 193 26 L 193 32 Z" fill="#ffffff"/>
	<path d="M 193 21 L 195 21 C 208 21 219 32 219 45 L 219 47 L 225 47 L 225 45 C 225 28 212 15 195 15 L 193 15 L 193 21 Z" fill="#ffffff"/>
	<path id="Ellipse4" d="M 193.3464 42.3766 C 193.3464 40.0144 195.2612 38.0996 197.6234 38.0996 C 199.9855 38.0996 201.9003 40.0144 201.9003 42.3766 C 201.9003 44.7387 199.9855 46.6536 197.6234 46.6536 C 195.2612 46.6536 193.3464 44.7387 193.3464 42.3766 Z" fill="#ffffff"/>
	<path d="M 176 26.145 C 176 36.7188 164.3595 45.2901 150 45.2901 C 147.2221 45.2901 147.4672 44.9304 144.9576 44.3363 C 141.7352 47.1265 145.223 52 145.223 52 C 125.7059 41.0723 124.9391 31.7506 124.9391 31.7506 L 125.1729 31.8454 C 124.4116 30.0451 124 28.1299 124 26.145 C 124 15.5714 135.6405 7 150 7 C 164.3595 7 176 15.5714 176 26.145 Z" fill="#66a284"/>
	<path id="Ellipse5" opacity="0.3608" d="M 129.6667 52.5814 C 129.6667 50.6932 136.5166 49.1628 144.9667 49.1628 C 153.4167 49.1628 160.2667 50.6932 160.2667 52.5814 C 160.2667 54.4696 153.4167 56 144.9667 56 C 136.5166 56 129.6667 54.4696 129.6667 52.5814 Z" fill="url(#gradient3)"/>
	<path d="M 151.8462 30 C 151.8462 28.9643 151.9615 28.2679 152.1923 27.875 C 152.4232 27.4822 153.077 26.9464 154.1923 26.2679 C 156.7308 24.7143 158 22.7679 158 20.4465 C 158 18.5893 157.25 17.0357 155.7692 15.8214 C 154.2692 14.6071 152.4232 14 150.2308 14 C 148.077 14 146.25 14.6249 144.75 15.8749 C 143.2499 17.125 142.3461 18.9464 142 21.3749 L 146.923 22.0001 C 147.173 18.9643 148.3077 17.4285 150.327 17.4285 C 151.0768 17.4285 151.7308 17.6785 152.2692 18.1428 C 152.8077 18.625 153.077 19.2678 153.077 20.0892 C 153.077 20.7678 152.923 21.3214 152.6538 21.7679 C 152.3654 22.2322 151.8654 22.7143 151.1539 23.2321 C 149.7885 24.2321 148.9423 25.0001 148.6346 25.5357 C 148.3077 26.0715 148.1538 27.3393 148.1538 29.3572 L 148.1538 30 L 151.8462 30 L 151.8462 30 Z" fill="#ffffff"/>
	<path id="Ellipse6" d="M 146.923 35.1429 C 146.923 33.5649 148.3007 32.2857 150 32.2857 C 151.6993 32.2857 153.077 33.5649 153.077 35.1429 C 153.077 36.7209 151.6993 38 150 38 C 148.3007 38 146.923 36.7209 146.923 35.1429 Z" fill="#ffffff"/>
</svg>