<?xml version="1.0" standalone="no"?>
<!DOCTYPE svg PUBLIC "-//W3C//DTD SVG 1.1//EN" "http://www.w3.org/Graphics/SVG/1.1/DTD/svg11.dtd">
<svg id="ignite-ui-PhoneLogo_Editable" viewBox="0 0 190 27" style="background-color:#ffffff00" version="1.1"
	xmlns="http://www.w3.org/2000/svg" xmlns:xlink="http://www.w3.org/1999/xlink" xml:space="preserve"
	x="0px" y="0px" width="190px" height="27px"
>
	<g>
		<path d="M 73.9753 21.1449 L 73.9753 5.0296 L 72.0418 5.0296 L 72.0418 21.1449 L 73.9753 21.1449 Z" fill="#ffffff"/>
		<path d="M 79.8387 11.0237 C 80.303 10.6068 80.9756 10.4066 81.8496 10.4066 C 83.6755 10.4066 84.5881 11.2088 84.5881 12.8283 C 84.5881 14.3713 83.6831 15.1425 81.8806 15.1425 C 81.0142 15.1425 80.3416 14.9499 79.8622 14.564 C 79.3745 14.1787 79.1427 13.6077 79.1427 12.8592 C 79.1427 12.0495 79.3745 11.4324 79.8387 11.0237 ZM 78.833 21.3988 C 79.2972 21.0211 79.9546 20.8354 80.7976 20.8354 L 83.0181 20.8354 C 84.1473 20.8354 84.9206 20.9592 85.3304 21.1979 C 85.7326 21.4379 85.9416 21.87 85.9416 22.494 C 85.9416 23.2507 85.5628 23.8368 84.8199 24.284 C 84.0701 24.716 82.925 24.9396 81.3701 24.9396 C 80.3258 24.9396 79.5214 24.7779 78.9647 24.4533 C 78.4074 24.1299 78.1294 23.6587 78.1294 23.0347 C 78.1294 22.3247 78.3612 21.7765 78.833 21.3988 ZM 83.6597 8.825 L 81.9193 8.825 C 80.4423 8.825 79.2972 9.18 78.4853 9.8893 C 77.6803 10.5993 77.2782 11.6099 77.2782 12.9287 C 77.2782 13.7157 77.472 14.4099 77.8817 15.0269 C 78.2763 15.6371 78.7944 16.0691 79.429 16.3306 C 78.9103 16.6477 78.5315 16.9711 78.2991 17.3033 C 78.0521 17.6419 77.9356 18.036 77.9356 18.4832 C 77.9356 18.8761 78.0439 19.2235 78.2529 19.5241 C 78.4695 19.8248 78.7323 20.0496 79.0496 20.1873 C 78.1832 20.3806 77.5106 20.7356 77.0312 21.275 C 76.5511 21.8081 76.3117 22.4409 76.3117 23.166 C 76.3117 24.2373 76.7449 25.0634 77.6189 25.6496 C 78.4853 26.2282 79.7304 26.5212 81.3391 26.5212 C 83.4278 26.5212 85.0213 26.1738 86.1195 25.4803 C 87.2101 24.7855 87.7592 23.7749 87.7592 22.4561 C 87.7592 21.4063 87.4039 20.6193 86.6921 20.0724 C 85.9726 19.5317 84.9517 19.255 83.6292 19.255 L 81.455 19.255 C 80.7748 19.255 80.303 19.1691 80.0319 19.0074 C 79.7539 18.8457 79.6145 18.5906 79.6145 18.2444 C 79.6145 17.604 80.0091 17.0633 80.8058 16.6313 C 81.1225 16.6932 81.4708 16.7248 81.8344 16.7248 C 83.2651 16.7248 84.395 16.3698 85.2145 15.6598 C 86.0347 14.9575 86.4444 14.0088 86.4444 12.8207 C 86.4444 12.2964 86.3596 11.8335 86.1968 11.4166 C 86.0347 11.0004 85.8491 10.6612 85.6325 10.4066 L 87.9144 10.1053 L 87.9144 8.825 L 83.6597 8.825 Z" fill="#ffffff"/>
		<path d="M 100.4532 21.1449 L 100.4532 13.2527 C 100.4532 11.7097 100.0732 10.5841 99.3233 9.8817 C 98.5734 9.18 97.4512 8.825 95.9666 8.825 C 95.1078 8.825 94.3421 8.9867 93.6461 9.3183 C 92.9494 9.6424 92.4161 10.1053 92.0368 10.6997 L 91.9443 10.6997 L 91.6346 8.825 L 90.1032 8.825 L 90.1032 21.1449 L 91.9905 21.1449 L 91.9905 14.8109 C 91.9905 13.2451 92.2844 12.1114 92.8956 11.4324 C 93.4909 10.7458 94.4422 10.4066 95.7342 10.4066 C 96.7013 10.4066 97.4208 10.653 97.8768 11.1317 C 98.3416 11.6174 98.5734 12.3501 98.5734 13.3374 L 98.5734 21.1449 L 100.4532 21.1449 Z" fill="#ffffff"/>
		<path d="M 104.1037 6.3023 C 104.3127 6.5032 104.5749 6.6112 104.9004 6.6112 C 105.2019 6.6112 105.4578 6.5032 105.682 6.3023 C 105.8986 6.0939 106.0062 5.7699 106.0062 5.3378 C 106.0062 4.914 105.8986 4.5976 105.682 4.3892 C 105.4578 4.1889 105.2019 4.0809 104.9004 4.0809 C 104.5749 4.0809 104.3127 4.1889 104.1037 4.3892 C 103.8947 4.59 103.787 4.9058 103.787 5.3378 C 103.787 5.7699 103.8947 6.0939 104.1037 6.3023 ZM 105.8289 8.825 L 103.9416 8.825 L 103.9416 21.1449 L 105.8289 21.1449 L 105.8289 8.825 Z" fill="#ffffff"/>
		<path d="M 111.9317 19.2929 C 111.5834 18.9001 111.4137 18.3367 111.4137 17.5964 L 111.4137 10.4066 L 114.9325 10.4066 L 114.9325 8.825 L 111.4137 8.825 L 111.4137 5.9783 L 110.3383 5.9783 L 109.5415 8.6785 L 107.7783 9.4807 L 107.7783 10.4066 L 109.5263 10.4066 L 109.5263 17.7113 C 109.5263 20.2189 110.7094 21.4607 113.0768 21.4607 C 113.3935 21.4607 113.7418 21.4303 114.1357 21.3684 C 114.5233 21.299 114.8172 21.2143 115.0249 21.1209 L 115.0249 19.6631 C 114.84 19.7098 114.6006 19.7641 114.2979 19.8096 C 113.9964 19.8563 113.6873 19.8867 113.3631 19.8867 C 112.7589 19.8867 112.2801 19.6946 111.9317 19.2929 Z" fill="#ffffff"/>
		<path d="M 124.0601 11.301 C 124.5782 11.8954 124.8416 12.7594 124.8416 13.878 L 118.445 13.878 C 118.545 12.7897 118.8933 11.9415 119.4735 11.3244 C 120.0612 10.7149 120.8428 10.4066 121.8244 10.4066 C 122.7922 10.4066 123.5344 10.7073 124.0601 11.301 ZM 124.4629 21.2838 C 125.0506 21.16 125.6764 20.9667 126.3338 20.6888 L 126.3338 19.0618 C 125.0341 19.6087 123.7358 19.8867 122.4122 19.8867 C 121.1518 19.8867 120.1777 19.5089 119.4811 18.7611 C 118.792 18.0044 118.4285 16.9092 118.3981 15.459 L 126.8607 15.459 L 126.8607 14.2943 C 126.8607 12.6514 126.411 11.332 125.5142 10.3289 C 124.6174 9.3266 123.3951 8.825 121.8485 8.825 C 120.2006 8.825 118.8933 9.4036 117.9104 10.5607 C 116.9363 11.7179 116.4411 13.2761 116.4411 15.243 C 116.4411 17.1947 116.9667 18.7219 118.0193 19.8172 C 119.0707 20.9124 120.5096 21.4607 122.3349 21.4607 C 123.1633 21.4607 123.8752 21.3988 124.4629 21.2838 Z" fill="#ffffff"/>
		<path d="M 139.6617 5.0296 L 139.6617 14.9575 C 139.6617 16.2232 139.4071 17.1479 138.9042 17.7354 C 138.3937 18.3291 137.5729 18.6222 136.4519 18.6222 C 135.2917 18.6222 134.4556 18.3291 133.9528 17.7429 C 133.4512 17.1568 133.1953 16.2384 133.1953 14.9884 L 133.1953 5.0296 L 129.6917 5.0296 L 129.6917 15.4748 C 129.6917 17.3336 130.2719 18.799 131.4397 19.8639 C 132.6152 20.9288 134.2555 21.4607 136.3671 21.4607 C 137.7667 21.4607 138.9815 21.2219 140.01 20.7431 C 141.0309 20.2656 141.8125 19.5708 142.3533 18.6676 C 142.9031 17.7732 143.1741 16.7159 143.1741 15.5209 L 143.1741 5.0296 L 139.6617 5.0296 Z" fill="#ffffff"/>
		<path d="M 150.4208 21.1449 L 150.4208 5.0296 L 146.902 5.0296 L 146.902 21.1449 L 150.4208 21.1449 Z" fill="#ffffff"/>
	</g>
	<g>
		<path d="M 153.5357 6.8961 L 153.5357 4.6823 L 154.1842 4.6823 L 154.1842 4.3659 L 152.5679 4.3659 L 152.5679 4.6823 L 153.2177 4.6823 L 153.2177 6.8961 L 153.5357 6.8961 Z" fill="#ffffff"/>
		<path d="M 155.0671 6.8961 L 155.0671 4.6823 L 155.8321 6.8961 L 155.9866 6.8961 L 156.6757 4.7057 L 156.6757 6.8961 L 157 6.8961 L 157 4.3659 L 156.4275 4.5743 L 155.9715 6.1016 C 155.917 6.279 155.8942 6.4104 155.8714 6.4951 C 155.9018 6.418 155.8714 6.3024 155.7777 6.1325 L 155.3141 4.5743 L 154.7415 4.3659 L 154.7415 6.8961 L 155.0671 6.8961 Z" fill="#ffffff"/>
	</g>
	<path d="M 46 0 L 39 0 L 39 16.7248 C 39 22.278 43.0625 27 50.0331 27 C 50.5977 27 49.3159 26.0046 49.3159 25.1253 C 49.3159 24.5228 49.4377 24.0907 49.5752 23.7206 L 49.5983 23.7282 C 49.5983 23.7282 50.2849 22.6721 50.2543 22.1933 L 50.2543 22.0468 C 50.2543 21.6843 49.8345 21.3141 49.4758 21.3141 C 49.1172 21.3141 48.7436 21.6767 48.7436 22.0392 L 48.7436 22.1163 C 48.7436 22.1163 48.6674 22.4409 49.1709 22.926 C 49.3615 23.1117 49.1859 23.0574 48.9192 23.0031 C 47.8202 22.3942 47.0954 21.2914 47.0954 19.941 C 47.0954 19.6327 47.1336 19.3397 47.2098 19.0542 C 46.4851 18.151 46 16.7412 46 15.4375 L 46 0 ZM 51.0634 27 C 59.0599 26.8295 63 21.7621 63 16.2 L 63 0 L 56 0 L 56 15 C 56 16.2266 55.8985 17.9958 55.25 18.875 C 55.3568 19.2072 54.2603 19.5708 54.2603 19.941 C 54.2603 20.3806 54.1841 20.7899 54.0392 21.1752 C 54.0011 21.4228 53.7187 22.2085 51.9637 23.9518 C 50.6129 25.287 50.7273 26.0425 50.7273 26.0425 C 50.7429 26.4593 50.8497 26.7372 51.0634 27 Z" fill="#ff6600"/>
	<path d="M 54.3128 19.5241 L 54.3128 19.5481 L 54.3362 19.6327 C 54.4908 18.7068 54.6611 17.7265 54.6611 16.7159 C 54.6611 14.5412 54.2666 12.5276 53.5933 10.8538 C 53.7561 9.974 53.841 9.0253 53.841 8.0456 C 53.841 4.5433 52.7504 1.5121 51.1569 0.0385 L 51.1183 0 L 51.072 0.0385 C 49.4862 1.5121 48.3956 4.5433 48.3956 8.0456 C 48.3956 8.7246 48.4804 10.0207 48.5115 10.0207 C 48.5501 10.0207 47.4595 11.9566 47.4367 15.2663 C 47.4209 17.5193 47.4367 18.4213 47.4595 18.5527 C 47.4829 18.4213 50.345 14.9575 50.345 14.9575 C 50.1746 14.6183 49.471 13.0367 49.471 8.8712 C 49.471 5.9859 50.1284 2.8853 51.0955 1.6738 L 51.1183 1.6429 L 51.1417 1.6738 C 52.1082 2.8853 52.7662 5.9859 52.7662 8.8712 L 52.7662 9.1876 C 52.2944 8.424 51.7605 7.7835 51.1727 7.2896 L 51.1183 7.2435 L 51.1183 14.7187 C 51.6522 15.0118 53.6554 18.1206 54.3128 19.5241 Z" fill="#ffffff"/>
</svg>