<svg id="Layer_1" data-name="Layer 1" xmlns="http://www.w3.org/2000/svg" viewBox="0 0 55 55"><defs><style>.cls-1{fill:#777;}</style></defs><title>Artboard 2</title><rect class="cls-1" x="46.32" y="16.34" width="5.97" height="38.47"/><polygon class="cls-1" points="36.73 54.8 42.7 54.8 42.7 20.71 40.34 20.71 36.73 23.92 36.73 54.8"/><polygon class="cls-1" points="27.14 30.07 27.14 54.8 33.11 54.8 33.11 27.15 28.46 31.28 27.14 30.07"/><polygon class="cls-1" points="30.74 20.71 29.62 20.71 30.12 21.22 30.74 20.71"/><polygon class="cls-1" points="17.55 26.49 17.55 54.8 23.52 54.8 23.52 26.76 20.26 23.78 17.55 26.49"/><polygon class="cls-1" points="7.96 24.97 7.96 26.49 9.48 24.97 7.96 24.97"/><polygon class="cls-1" points="7.96 54.8 13.93 54.8 13.93 30.11 7.96 36.08 7.96 54.8"/><polygon class="cls-1" points="37.29 0.2 43.23 6.14 30.12 16.96 21.68 8.51 2.5 27.69 7.29 32.48 20.26 19.52 28.46 27.02 47.33 10.23 52.5 15.4 52.5 14.57 52.5 0.2 37.29 0.2"/></svg>