<?xml version="1.0" standalone="no"?>
<!DOCTYPE svg PUBLIC "-//W3C//DTD SVG 1.1//EN" "http://www.w3.org/Graphics/SVG/1.1/DTD/svg11.dtd">
<svg id="touchUI-icons-sprite" viewBox="0 0 780 60" style="background-color:#ffffff00" version="1.1"
	xmlns="http://www.w3.org/2000/svg" xmlns:xlink="http://www.w3.org/1999/xlink" xml:space="preserve"
	x="0px" y="0px" width="780px" height="60px"
>
	<path d="M 221 37.75 L 220.3333 37.75 C 219.875 39.166 219.3594 40.1289 218.6719 40.6387 C 217.9844 41.1484 217.0104 41.375 215.6927 41.375 L 203.7865 41.375 L 212.4063 29.5762 L 204.099 18.625 L 215.6927 18.625 C 217.0677 18.625 218.1563 18.9082 218.901 19.4746 C 219.6458 20.041 220.1042 20.9473 220.3333 22.25 L 221 22.25 L 220 15 L 199 15 L 199 16.5859 L 209.7969 29.5195 L 199 44.1504 L 199 45 L 220 45 L 221 36.75 L 221 37.75 Z" fill="#525252"/>
	<path d="M 23.8125 15 L 22.1719 15 L 17 28 L 18.7656 28 L 20.1563 24 L 25.7813 24 L 27.25 28 L 29 28 L 23.8125 15 L 23.8125 15 ZM 20.5469 23 L 22.7188 16.9219 C 22.7969 16.7031 22.875 16.3906 22.9375 16 L 22.9844 16 C 23.0469 16.4219 23.1094 16.7344 23.2031 16.9219 L 25.3906 23 L 20.5469 23 L 20.5469 23 Z" fill="#525252"/>
	<path d="M 28 32 L 19 32 L 19 33 L 25.6406 33 L 18 44.6875 L 18 45 L 28 45 L 28 44 L 20.2969 44 L 28 32.2656 L 28 32 L 28 32 Z" fill="#525252"/>
	<path d="M 38 15 L 40 15 L 40 44 L 38 44 L 38 15 Z" fill="#525252"/>
	<path d="M 34 37 L 39 45 L 44 37 L 39 40 L 34 37 Z" fill="#525252"/>
	<path d="M 157 15 L 159 15 L 159 44 L 157 44 L 157 15 Z" fill="#525252"/>
	<path d="M 153 37 L 158 45 L 163 37 L 158 40 L 153 37 Z" fill="#525252"/>
	<path d="M 139 15 L 141 15 L 141 44 L 139 44 L 139 15 Z" fill="#525252"/>
	<path d="M 135 37 L 140 45 L 145 37 L 140 40 L 135 37 Z" fill="#525252"/>
	<path d="M 148 45 L 150 45 L 150 16 L 148 16 L 148 45 Z" fill="#525252"/>
	<path d="M 144 23 L 149 15 L 154 23 L 149 20 L 144 23 Z" fill="#525252"/>
	<path d="M 83.8125 32 L 82.1719 32 L 77 45 L 78.7656 45 L 80.1563 41 L 85.7813 41 L 87.25 45 L 89 45 L 83.8125 32 L 83.8125 32 ZM 80.5469 40 L 82.7188 33.9219 C 82.7969 33.7031 82.875 33.3906 82.9375 33 L 82.9844 33 C 83.0469 33.4219 83.1094 33.7344 83.2031 33.9219 L 85.3906 40 L 80.5469 40 L 80.5469 40 Z" fill="#525252"/>
	<path d="M 88 15 L 79 15 L 79 16 L 85.6406 16 L 78 27.6875 L 78 28 L 88 28 L 88 27 L 80.2969 27 L 88 15.2656 L 88 15 L 88 15 Z" fill="#525252"/>
	<path d="M 98 15 L 100 15 L 100 44 L 98 44 L 98 15 Z" fill="#525252"/>
	<path d="M 94 37 L 99 45 L 104 37 L 99 40 L 94 37 Z" fill="#525252"/>
	<path d="M 255 29 L 255 31 L 263 31 L 263 39 L 265 39 L 265 35 L 280 35 L 280 31 L 280 29 L 280 25 L 265 25 L 265 21 L 263 21 L 263 29 L 255 29 Z" fill="#525252"/>
	<path d="M 329 43 L 331 43 L 331 35 L 339 35 L 339 33 L 335 33 L 335 18 L 331 18 L 329 18 L 325 18 L 325 33 L 321 33 L 321 35 L 329 35 L 329 43 Z" fill="#525252"/>
	<rect y="15" x="375" width="9" height="5" fill="#525252"/>
	<rect y="15" x="388" width="9" height="5" fill="#525252"/>
	<rect y="17" x="383" width="6" height="1" fill="#525252"/>
	<rect y="22" x="384" width="19" height="5" fill="#525252"/>
	<rect y="32" x="384" width="19" height="5" fill="#525252"/>
	<rect y="27" x="388" width="15" height="5" fill="#b4b4b4"/>
	<rect y="37" x="388" width="15" height="5" fill="#b4b4b4"/>
	<rect y="15" x="441" width="22" height="4" fill="#525252"/>
	<path d="M 441 21 L 441 23 L 447 23 L 447 25 L 463 25 L 463 23 L 463 21 L 447 21 L 441 21 Z" fill="#525252"/>
	<rect y="25" x="436" width="9" height="4" fill="#525252"/>
	<rect y="31" x="436" width="9" height="4" fill="#525252"/>
	<rect y="37" x="436" width="9" height="4" fill="#525252"/>
	<path d="M 448 39 L 448 43 L 457 43 L 457 40 L 457 39 L 457 33 L 460 33 L 455 27 L 450 33 L 453 33 L 453 39 L 448 39 Z" fill="#525252"/>
	<path d="M 463 27 L 457 27 L 461 31 L 463 31 L 463 27 ZM 449 31 L 453 27 L 447 27 L 447 31 L 449 31 Z" fill="#525252"/>
	<rect y="15" x="509" width="2" height="30" fill="#525252"/>
	<path d="M 498 29 L 522 29 L 522 31 L 498 31 L 498 29 Z" fill="#525252"/>
	<path d="M 495 30 L 501 27 L 501 33 L 495 30 Z" fill="#525252"/>
	<path d="M 525 30 L 519 27 L 519 33 L 525 30 Z" fill="#525252"/>
	<rect y="26" x="566" width="8" height="18" fill="#525252"/>
	<rect y="26" x="558" width="8" height="18" fill="#b4b4b4"/>
	<rect y="26" x="574" width="8" height="18" fill="#b4b4b4"/>
	<rect y="18" x="565" width="10" height="2" fill="#525252"/>
	<path d="M 566 16 L 566 22 L 562 19 L 562 19 L 566 16 Z" fill="#525252"/>
	<path d="M 574 16 L 574 22 L 578 19 L 578 19 L 574 16 Z" fill="#525252"/>
	<path d="M 703 30.5 C 703 30.5 699.1 21 690 21 C 680.9 21 677 30.5 677 30.5 C 677 30.5 680.9 40 690 40 C 699.1 40 703 30.5 703 30.5 Z" fill="#525252"/>
	<path id="Ellipse" d="M 683.0667 30.5 C 683.0667 26.6842 686.1708 23.5909 690 23.5909 C 693.8292 23.5909 696.9333 26.6842 696.9333 30.5 C 696.9333 34.3158 693.8292 37.4091 690 37.4091 C 686.1708 37.4091 683.0667 34.3158 683.0667 30.5 Z" fill="#b4b4b4"/>
	<path id="Ellipse2" d="M 686.7645 30.5 C 686.7645 28.7193 688.213 27.2758 690 27.2758 C 691.787 27.2758 693.2355 28.7193 693.2355 30.5 C 693.2355 32.2807 691.787 33.7242 690 33.7242 C 688.213 33.7242 686.7645 32.2807 686.7645 30.5 Z" fill="#525252"/>
	<path d="M 643 30.5 C 643 30.5 639.1 21 630 21 C 620.9 21 617 30.5 617 30.5 C 617 30.5 620.9 40 630 40 C 639.1 40 643 30.5 643 30.5 Z" fill="#525252"/>
	<path id="Ellipse3" d="M 623.0667 30.5 C 623.0667 26.6842 626.1708 23.5909 630 23.5909 C 633.8292 23.5909 636.9333 26.6842 636.9333 30.5 C 636.9333 34.3158 633.8292 37.4091 630 37.4091 C 626.1708 37.4091 623.0667 34.3158 623.0667 30.5 Z" fill="#b4b4b4"/>
	<path id="Ellipse4" d="M 626.7645 30.5 C 626.7645 28.7193 628.213 27.2758 630 27.2758 C 631.787 27.2758 633.2355 28.7193 633.2355 30.5 C 633.2355 32.2807 631.787 33.7242 630 33.7242 C 628.213 33.7242 626.7645 32.2807 626.7645 30.5 Z" fill="#525252"/>
	<path id="Line" d="M 644.5 14.5 L 614.5 44.5 " stroke="#525252" stroke-width="2" fill="none"/>
	<path d="M 740 23 L 760 23 L 760 25.75 L 753 31.9688 L 752.9844 39.9844 L 747 39.9844 L 747 32 L 740 25.75 L 740 23 Z" fill="#525252"/>
</svg>